<svg xmlns="http://www.w3.org/2000/svg" viewBox="0 -0.5 32 32" shape-rendering="crispEdges">
<metadata>Made with Pixels to Svg https://codepen.io/shshaw/pen/XbxvNj</metadata>
<path stroke="#ffffff" d="M5 3h7M14 3h4M20 3h7M4 4h1M27 4h1M3 5h1M28 5h1M3 6h1M6 6h4M12 6h5M28 6h1M3 7h1M6 7h1M11 7h1M17 7h6M28 7h1M6 8h1M8 8h2M11 8h3M23 8h2M28 8h1M3 9h1M6 9h1M8 9h1M12 9h1M14 9h6M22 9h1M25 9h1M28 9h1M3 10h1M6 10h1M8 10h1M12 10h1M20 10h4M25 10h1M28 10h1M3 11h1M6 11h1M11 11h1M14 11h2M25 11h1M28 11h1M3 12h1M6 12h1M10 12h1M16 12h5M23 12h2M28 12h1M3 13h1M9 13h1M12 13h3M22 13h1M28 13h1M3 14h1M8 14h1M15 14h4M21 14h1M25 14h1M28 14h1M3 15h1M7 15h1M10 15h3M20 15h1M23 15h1M25 15h1M28 15h1M6 16h1M13 16h4M19 16h1M23 16h1M25 16h1M28 16h1M5 17h1M9 17h1M18 17h1M23 17h1M25 17h1M28 17h1M2 18h3M10 18h3M18 18h1M23 18h1M25 18h1M28 18h1M1 19h1M5 19h4M13 19h2M17 19h1M23 19h1M25 19h1M28 19h1M2 20h1M9 20h2M16 20h1M23 20h1M25 20h1M28 20h1M3 21h1M9 21h1M11 21h1M16 21h1M23 21h1M25 21h1M28 21h1M4 22h2M8 22h2M11 22h1M15 22h1M23 22h1M25 22h1M28 22h1M6 23h2M10 23h1M14 23h1M18 23h6M25 23h1M28 23h1M3 24h1M7 24h1M13 24h1M25 24h1M28 24h1M3 25h1M8 25h5M16 25h10M28 25h1M3 26h1M28 26h1M3 27h1M28 27h1M3 28h5M10 28h12M24 28h5" />
</svg>