<svg xmlns="http://www.w3.org/2000/svg" viewBox="0 -0.5 32 32" shape-rendering="crispEdges">
<metadata>Made with Pixels to Svg https://codepen.io/shshaw/pen/XbxvNj</metadata>
<path stroke="#ffffff" d="M13 2h6M5 3h5M12 3h8M22 3h5M4 4h1M12 4h1M14 4h4M19 4h1M27 4h1M3 5h1M6 5h4M12 5h1M19 5h1M22 5h4M28 5h1M3 6h1M5 6h1M12 6h3M17 6h3M26 6h1M28 6h1M3 7h1M5 7h1M13 7h2M17 7h2M26 7h1M28 7h1M3 8h1M5 8h1M13 8h2M17 8h2M26 8h1M28 8h1M3 9h1M7 9h3M11 9h1M14 9h1M17 9h1M20 9h1M22 9h3M28 9h1M6 10h4M11 10h2M19 10h2M22 10h4M5 11h4M10 11h2M14 11h1M17 11h1M20 11h2M23 11h4M3 12h1M9 12h2M12 12h1M14 12h4M19 12h1M21 12h2M28 12h1M3 13h1M5 13h5M11 13h3M15 13h2M18 13h3M22 13h5M28 13h1M3 14h1M10 14h4M15 14h2M18 14h4M28 14h1M3 15h1M6 15h3M10 15h4M15 15h2M18 15h4M23 15h3M28 15h1M3 16h1M6 16h4M11 16h3M18 16h3M22 16h4M28 16h1M3 17h1M6 17h4M15 17h2M22 17h4M28 17h1M3 18h1M6 18h2M11 18h4M17 18h2M20 18h1M24 18h2M28 18h1M3 19h1M7 19h1M9 19h1M11 19h2M15 19h2M19 19h2M22 19h1M24 19h1M28 19h1M3 20h1M6 20h1M8 20h2M12 20h1M14 20h1M17 20h1M19 20h1M22 20h2M25 20h1M28 20h1M6 21h1M8 21h2M12 21h1M15 21h2M19 21h1M22 21h2M25 21h1M6 22h2M12 22h1M14 22h1M17 22h1M19 22h1M24 22h2M3 23h1M6 23h4M12 23h1M15 23h2M19 23h1M22 23h4M28 23h1M3 24h1M6 24h4M12 24h1M14 24h1M17 24h1M19 24h1M22 24h4M28 24h1M3 25h1M7 25h2M23 25h2M28 25h1M3 26h1M7 26h1M12 26h2M18 26h2M24 26h1M28 26h1M3 27h1M8 27h1M23 27h1M28 27h1M3 28h3M7 28h2M10 28h12M23 28h2M26 28h3" />
</svg>