<svg xmlns="http://www.w3.org/2000/svg" viewBox="0 -0.5 32 32" shape-rendering="crispEdges">
<metadata>Made with Pixels to Svg https://codepen.io/shshaw/pen/XbxvNj</metadata>
<path stroke="#ffffff" d="M1 1h2M29 1h2M1 2h2M29 2h2M4 3h1M8 3h4M14 3h4M20 3h4M27 3h1M3 4h3M7 4h2M23 4h2M26 4h3M4 5h2M7 5h1M9 5h1M13 5h1M18 5h1M22 5h1M24 5h1M26 5h2M6 6h2M9 6h2M13 6h1M15 6h2M18 6h1M21 6h2M24 6h2M4 7h3M8 7h3M12 7h1M14 7h4M19 7h1M21 7h3M25 7h3M3 8h2M7 8h3M11 8h10M22 8h3M27 8h2M3 9h1M5 9h4M10 9h12M23 9h4M28 9h1M3 10h1M6 10h3M10 10h2M14 10h4M20 10h2M23 10h3M28 10h1M3 11h1M7 11h2M10 11h2M15 11h2M20 11h2M23 11h2M28 11h1M8 12h1M10 12h3M15 12h2M19 12h3M23 12h1M10 13h12M3 14h1M5 14h1M7 14h1M11 14h10M24 14h1M26 14h1M28 14h1M3 15h1M5 15h1M7 15h1M10 15h1M12 15h2M15 15h2M18 15h2M21 15h1M24 15h1M26 15h1M28 15h1M3 16h1M5 16h1M7 16h1M10 16h2M13 16h6M20 16h2M24 16h1M26 16h1M28 16h1M3 17h1M5 17h1M7 17h1M11 17h1M13 17h6M20 17h1M24 17h1M26 17h1M28 17h1M3 18h1M5 18h1M9 18h1M11 18h1M14 18h1M17 18h1M20 18h1M22 18h1M26 18h1M28 18h1M3 19h1M5 19h1M8 19h2M11 19h2M19 19h2M22 19h2M26 19h1M28 19h1M3 20h1M7 20h3M12 20h2M15 20h2M18 20h2M22 20h3M28 20h1M6 21h1M8 21h2M13 21h6M22 21h2M25 21h1M5 22h2M8 22h4M20 22h4M25 22h2M4 23h1M6 23h1M8 23h5M19 23h5M25 23h1M27 23h1M3 24h2M6 24h1M11 24h1M14 24h4M20 24h1M25 24h1M27 24h2M3 25h2M6 25h5M21 25h5M27 25h2M3 26h2M9 26h1M12 26h8M22 26h1M27 26h2M3 27h6M23 27h6M3 28h5M10 28h12M24 28h5" />
</svg>